<svg width="428.516" height="200" viewBox="0 0 2194 1024" xmlns="http://www.w3.org/2000/svg" xmlns:xlink="http://www.w3.org/1999/xlink" overflow="hidden"><defs></defs><path d="M1711.54 741.181C1696.91 726.552 1677.41 716.8 1662.78 707.048 1614.02 682.667 1560.38 663.162 1506.74 653.41 1453.1 643.657 1394.59 633.905 1336.08 638.781 1326.32 638.781 1321.45 638.781 1311.7 643.657 1287.31 438.857 1277.56 238.933 1287.31 34.133 1223.92 53.638 1170.29 82.895 1111.77 102.4 1170.29 399.848 1204.42 697.295 1228.8 999.619L1248.31 999.619C1292.19 999.619 1331.2 999.619 1375.08 989.867 1428.72 984.99 1482.36 970.362 1536 955.733 1589.64 936.229 1638.4 916.723 1677.41 877.714 1701.79 858.21 1721.3 838.704 1726.17 809.448 1740.8 785.067 1735.92 760.686 1711.54 741.181ZM1414.09 906.971C1404.34 848.457 1399.47 794.819 1389.71 741.181 1448.23 755.81 1501.87 780.191 1555.51 799.695 1511.62 838.705 1462.86 872.838 1414.09 906.971ZM614.4 736.305C594.895 721.676 580.267 711.924 560.762 702.171 512 677.791 458.362 663.161 404.724 653.41 351.086 643.657 297.448 638.781 243.81 643.657 234.057 643.657 229.181 643.657 219.429 648.533 195.048 443.733 180.419 238.933 190.171 34.133 131.657 48.762 73.143 82.895 19.505 102.4 78.019 399.848 112.152 697.295 136.533 999.619L156.038 999.619C238.933 999.619 316.952 989.867 394.971 970.362 458.361 955.733 521.752 926.476 575.391 887.467 599.771 867.962 624.152 843.581 633.905 814.324 648.533 785.067 638.781 760.686 614.4 736.304ZM316.952 906.97C307.2 848.456 302.324 794.818 292.572 741.18 312.076 741.18 438.857 789.942 453.486 799.694 414.476 838.704 365.714 872.837 316.952 906.97ZM916.724 721.675C911.848 677.789 911.848 638.78 906.971 594.895 902.095 546.132 897.219 492.495 897.219 443.732 892.343 399.847 892.343 351.085 887.467 307.199 882.59 258.437 882.59 209.675 877.714 160.913 877.714 146.285 877.714 146.285 863.086 146.285L858.21 146.285C838.705 146.285 819.2 146.285 804.571 151.161 789.943 151.161 775.314 156.037 760.686 156.037 804.571 399.847 828.952 648.532 853.333 897.218 882.59 897.218 911.848 902.094 941.105 902.094L941.105 882.59C921.6 824.076 916.724 775.314 916.724 721.676ZM2013.87 760.685C2008.99 711.923 2004.11 668.037 2004.11 619.275 1999.24 570.513 1994.36 516.875 1989.49 468.113 1984.61 419.351 1984.61 375.466 1979.73 326.703 1974.86 268.189 1969.98 214.551 1969.98 156.037 1969.98 141.409 1969.98 141.409 1955.35 141.409L1911.47 141.409C1891.96 141.409 1872.46 146.285 1848.08 151.161 1891.96 394.971 1916.34 643.656 1940.72 892.341 1969.98 892.341 1999.24 897.218 2028.49 897.218L2028.49 892.342 2013.87 760.685ZM1862.7 658.285C1857.83 619.275 1852.95 575.389 1843.2 536.38 1843.2 526.628 1838.32 526.628 1833.45 526.628L1784.69 526.628C1765.18 531.504 1745.68 531.504 1721.3 536.38 1745.68 668.037 1774.93 799.694 1799.31 931.351 1828.57 926.475 1857.83 926.475 1887.09 921.599 1882.21 887.466 1882.21 858.209 1877.33 828.951 1872.46 775.313 1867.58 716.799 1862.7 658.285ZM765.562 658.285C760.686 619.275 755.81 580.265 750.933 536.38 750.933 526.628 746.057 526.628 736.305 526.628 711.924 526.628 687.543 531.504 668.038 531.504 653.41 531.504 643.658 536.38 629.028 541.256 653.41 672.913 682.667 804.57 707.048 936.228 736.305 931.351 765.562 931.351 794.819 926.475L794.819 921.6C789.943 887.467 789.943 848.457 785.067 814.324 775.314 760.686 770.438 707.048 765.562 658.286ZM1077.64 555.885C1077.64 541.256 1077.64 541.256 1063.01 541.256 1028.88 536.38 994.743 541.256 955.733 541.256 970.362 677.789 980.114 809.446 994.743 941.104L1082.51 941.104 1082.51 926.475C1082.51 804.57 1082.51 682.665 1077.64 555.885ZM2179.66 794.818C2179.66 716.799 2174.78 638.78 2174.78 555.885 2174.78 541.256 2174.78 541.256 2160.15 541.256 2126.02 536.38 2087.01 541.256 2052.88 541.256 2067.5 677.789 2077.26 809.446 2091.89 941.104L2179.66 941.104 2179.66 931.351C2184.53 887.466 2184.53 843.58 2179.66 794.818ZM668.037 380.343C672.913 409.6 677.789 443.733 677.789 472.99L682.666 477.867C697.294 477.867 716.799 477.867 731.428 472.99 731.428 453.486 726.551 438.857 726.551 424.229 721.675 390.095 721.675 360.839 716.799 326.705L711.923 321.829C697.294 316.952 677.789 316.952 658.285 321.829L658.285 331.581C668.037 351.086 668.037 365.714 668.037 380.343ZM1784.69 477.867C1799.31 477.867 1818.82 477.867 1833.45 472.99 1833.45 453.486 1828.57 438.857 1828.57 419.352 1823.69 390.095 1823.69 355.962 1818.82 326.705 1818.82 326.705 1818.82 321.829 1813.94 321.829 1794.44 316.952 1779.81 316.952 1760.3 321.829L1760.3 326.705C1765.18 375.467 1770.06 424.229 1779.81 472.99 1779.81 477.867 1784.69 477.867 1784.69 477.867ZM1024 482.743C1024 487.619 1024 487.619 1028.88 487.619L1077.64 487.619 1077.64 351.086C1077.64 341.333 1077.64 341.333 1067.89 336.457 1053.26 336.457 1038.63 336.457 1024 331.581L1024 482.743ZM2126.02 492.495 2174.78 492.495 2174.78 346.21 2169.91 341.333C2150.4 341.333 2135.77 336.457 2116.27 336.457L2116.27 341.333C2116.27 390.095 2116.27 438.857 2121.14 487.619 2121.14 492.495 2126.02 492.495 2126.02 492.495ZM658.286 482.743C663.162 482.743 663.162 477.867 663.162 472.99 663.162 458.362 663.162 443.733 658.286 433.981 653.41 404.724 648.533 370.591 643.657 341.333 643.657 336.457 643.657 331.581 633.905 336.457 619.276 336.457 604.648 341.333 590.019 341.333 599.771 390.095 609.524 443.733 619.276 492.495 633.905 487.619 643.657 482.743 658.286 482.743ZM1750.55 482.743C1755.43 482.743 1760.31 477.867 1760.31 472.99 1755.43 443.733 1755.43 419.352 1750.55 390.095 1750.55 375.467 1745.68 355.962 1740.8 341.333 1740.8 336.457 1740.8 331.581 1735.92 331.581 1721.3 331.581 1706.67 336.457 1687.16 336.457 1696.91 385.219 1706.67 438.857 1716.42 487.619 1726.17 487.619 1740.8 487.619 1750.55 482.743ZM2096.76 492.495 2101.64 487.619 2101.64 351.086C2096.76 346.21 2096.76 341.333 2091.89 341.333 2077.26 341.333 2057.75 341.333 2043.12 346.21 2048 394.971 2048 448.61 2052.88 497.371 2067.5 492.495 2082.13 492.495 2096.76 492.495ZM999.619 492.495 1004.49 487.619 1004.49 351.086 999.619 346.21C984.99 346.21 965.486 346.21 950.857 351.086 955.733 399.848 955.733 453.486 960.61 502.248 975.238 492.495 984.99 492.495 999.619 492.495Z" fill="#1296DB" fill-opacity="0.3"/></svg>