<svg width="200" height="200" viewBox="0 0 1024 1024" xmlns="http://www.w3.org/2000/svg" xmlns:xlink="http://www.w3.org/1999/xlink" overflow="hidden"><defs></defs><path d="M927.817 456.594 845.166 373.943 845.166 257.097C845.166 213.773 810.044 178.651 766.72 178.651L649.874 178.651 567.223 96C536.686 65.4629 486.949 65.4629 456.229 96L373.577 178.651 256.731 178.651C213.407 178.651 178.286 213.773 178.286 257.097L178.286 373.943 95.6343 456.594C65.0971 487.131 65.0971 536.869 95.6343 567.589L178.286 650.24 178.286 767.086C178.286 810.41 213.407 845.531 256.731 845.531L373.577 845.531 456.229 928.183C486.766 958.72 536.503 958.72 567.223 928.183L649.874 845.531 766.72 845.531C810.044 845.531 845.166 810.41 845.166 767.086L845.166 650.24 927.817 567.589C958.467 537.04 958.55 487.429 928.002 456.779 927.94 456.717 927.879 456.656 927.817 456.594ZM713.691 434.103 458.971 649.691C451.84 655.726 442.88 659.017 433.554 659.017 432.457 659.017 431.36 659.017 430.08 658.834 419.657 657.92 409.966 652.983 403.383 644.937L305.371 527.36C291.474 510.72 293.669 486.034 310.309 472.137 326.949 458.24 351.634 460.617 365.531 477.074L438.309 564.297 663.04 374.126C679.68 360.229 704.366 362.24 718.263 378.697 732.343 395.337 730.331 420.206 713.691 434.103Z" stroke-width="0.999811" fill="#2ABF14"/></svg>