<svg width="200.195" height="200" viewBox="0 0 1025 1024" xmlns="http://www.w3.org/2000/svg" xmlns:xlink="http://www.w3.org/1999/xlink" overflow="hidden"><defs></defs><path d="M464.712 488.106C362.197 494.931 280.182 546.138 280.182 614.403 280.182 682.668 362.197 730.455 464.712 727.036 567.227 723.617 649.242 662.191 649.242 590.533 649.242 525.65 567.202 484.649 464.712 488.106ZM536.508 658.722C505.751 699.723 440.818 716.792 382.735 686.086 355.397 672.423 355.397 641.703 355.397 641.703 355.397 641.703 341.734 546.138 444.237 535.894 546.752 522.219 567.303 621.215 536.508 658.722Z" fill="#FB5555" fill-opacity="0.4"/><path d="M464.762 597.358C457.925 604.184 457.925 611.008 461.344 617.846 464.712 621.24 471.537 621.24 478.375 617.846 485.213 611.009 488.632 604.184 485.213 597.358 481.844 593.927 471.588 590.508 464.763 597.358ZM420.317 607.578C399.829 610.984 386.154 624.684 386.154 641.703 386.154 655.366 399.829 669.003 420.317 665.61 437.399 665.61 454.493 651.91 457.887 634.878 457.912 617.821 440.817 604.171 420.317 607.578Z" fill="#FB5555" fill-opacity="0.4"/><path d="M512.551 0C229.476 0 0 229.175 0 512 0 794.825 229.476 1024 512.551 1024 795.626 1024 1025.1 794.825 1025.1 512.05 1025.1 229.275 795.626 0 512.551 0ZM741.526 634.928C697.08 723.68 560.39 764.631 457.887 757.806 358.816 750.981 235.775 720.236 222.1 604.246 222.1 604.246 215.274 553.039 266.52 484.774 266.52 484.774 341.659 385.841 427.118 355.084 516.032 327.734 526.214 375.559 526.214 402.873 519.376 430.173 512.551 443.823 543.308 433.579 543.308 433.579 628.729 396.009 662.905 430.173 690.231 457.486 666.311 495.018 666.311 495.018 666.311 495.018 656.067 508.594 680.011 512 707.35 515.419 782.514 552.951 741.526 634.928ZM751.77 436.898C748.351 450.561 741.513 457.386 727.838 457.386 717.594 457.386 707.338 447.142 707.338 436.898L707.338 426.654C707.338 395.947 683.393 368.634 649.242 368.634 638.973 368.634 628.729 358.39 628.729 348.158 628.729 337.926 638.973 327.683 649.242 327.683 707.325 327.683 751.745 372.065 751.745 426.617L751.745 436.861ZM830.353 453.968 830.353 460.855C826.947 471.099 816.69 477.925 803.027 474.493 790.139 474.815 779.43 464.628 779.109 451.74 779.099 451.364 779.099 450.987 779.108 450.611L779.108 447.142C782.514 440.279 782.514 430.086 782.514 423.26 782.514 351.565 721.025 293.545 649.28 293.545 636.385 293.867 625.671 283.674 625.349 270.779 625.339 270.402 625.339 270.026 625.348 269.65 625.348 256.013 635.592 245.856 649.305 245.756 751.807 245.756 833.81 327.683 833.81 426.654 833.772 436.936 830.353 443.736 830.353 453.967Z" fill="#FB5555" fill-opacity="0.4"/></svg>