<svg width="332.031" height="200" viewBox="0 0 1700 1024" xmlns="http://www.w3.org/2000/svg" xmlns:xlink="http://www.w3.org/1999/xlink" overflow="hidden"><defs></defs><path d="M1556.58 666.846C1527.51 727.138 1496.51 743.708 1432.26 733.552 1390.99 727.031 1368.44 702.872 1362.34 654.659 1387.25 654.659 1411.84 654.018 1436.32 654.873 1452.78 655.515 1460.27 649.956 1459.62 632.638 1458.66 607.623 1459.84 582.394 1458.98 557.38 1458.23 536.427 1446.8 522.744 1425.42 522.316 1382.44 521.354 1339.47 521.995 1292.32 521.995L1292.32 734.835 1196.65 734.835 1196.65 523.385 1100.12 523.385 1100.12 425.036 1193.98 425.036 1193.98 341.546 1131.65 341.546 1131.65 245.442C1152.18 244.48 1171.85 243.411 1194.94 242.342L1194.94 208.989 1291.36 208.989C1287.62 235.821 1298.1 244.48 1326 244.908 1400.08 246.084 1439.1 287.775 1440.49 362.178 1440.92 382.596 1440.6 403.014 1440.6 425.464 1500.46 422.684 1537.34 447.378 1556.58 498.156L1556.58 666.846ZM1292 336.95C1292 366.347 1290.83 388.262 1292.75 409.856 1293.29 415.415 1303.55 424.288 1309.32 424.288 1320.97 424.395 1342.35 420.546 1342.78 416.377 1345.24 394.035 1346.2 369.982 1339.57 349.029 1337.33 341.76 1312.1 341.653 1292 336.95ZM357.368 208.882C357.154 355.23 357.261 501.684 356.512 648.032 356.192 710.676 316.959 744.136 257.843 734.301 219.145 727.887 198.192 701.696 196.695 655.515L260.943 655.515 260.943 208.989C293.12 208.882 325.297 208.882 357.368 208.882ZM767.119 208.882C743.494 256.025 717.09 301.993 700.306 346.784 739.646 344.539 774.923 342.508 817.042 340.05 794.807 384.948 775.03 424.715 755.253 464.589 752.581 469.934 750.015 475.493 747.343 480.838 726.604 522.423 726.711 522.53 772.678 523.813 777.489 523.919 782.192 524.561 790.958 525.309 778.023 550.645 766.692 573.735 754.505 596.398 752.474 600.14 747.022 604.416 743.174 604.416 709.179 604.309 674.864 605.485 641.083 601.743 616.603 598.964 607.302 580.47 616.816 557.166 628.469 528.409 642.259 500.508 655.087 472.286 659.47 462.558 663.853 452.83 670.374 438.399 651.452 438.399 637.769 438.826 624.086 438.292 583.463 436.902 569.994 418.836 586.67 381.955 613.075 323.587 642.58 266.502 670.695 208.882L767.119 208.882ZM62.1069 576.408C68.2003 542.627 75.8971 508.953 79.9594 474.959 85.0906 432.198 87.1217 389.117 90.6495 344.219L192.099 344.219C174.888 460.206 195.519 583.036 119.513 689.723 99.2016 654.018 80.6008 621.199 62 588.381 62.1069 584.532 62.1069 580.47 62.1069 576.408ZM1556.58 305.307C1534.88 343.043 1500.57 344.005 1463.79 338.232 1452.78 290.341 1460.69 258.912 1486.24 247.26 1510.08 236.356 1531.89 245.015 1556.58 275.268L1556.58 305.307Z" fill="#FF0000" fill-opacity="0.3"/><path d="M998.667 639.479C1025.07 639.479 1049.87 640.014 1074.67 639.266 1090.28 638.838 1095.09 645.252 1096.05 660.539 1100.86 736.653 1101.29 736.653 1024.32 736.653L752.367 736.653C769.257 703.299 782.941 674.009 799.083 646.214 802.076 640.976 815.118 640.014 823.563 639.8 847.509 638.945 871.562 639.479 897.859 639.479L897.859 341.332 836.391 341.332 836.391 246.725 1059.49 246.725 1059.49 339.836 998.56 339.836C998.667 440.43 998.667 538.03 998.667 639.479ZM425.891 343.364 520.926 343.364C525.523 402.052 523.492 461.169 536.213 516.971 551.179 582.287 527.34 632.852 496.446 684.378 450.265 643.969 425.143 522.957 425.891 343.364ZM597.04 638.304 750.977 638.304C733.766 671.977 720.19 699.451 705.331 726.283 702.551 731.201 694.427 735.904 688.654 736.011 643.756 736.759 598.857 736.439 547.331 736.439 566.894 697.634 582.929 666.098 597.04 638.304Z" fill="#FF0000" fill-opacity="0.3"/></svg>